<?xml version="1.0" encoding="utf-8"?>
<!-- Generator: Adobe Illustrator 26.3.1, SVG Export Plug-In . SVG Version: 6.00 Build 0)  -->
<svg version="1.1" id="Layer_1" xmlns="http://www.w3.org/2000/svg" xmlns:xlink="http://www.w3.org/1999/xlink" x="0px" y="0px"
	 viewBox="0 0 187.6 254.6" style="enable-background:new 0 0 187.6 254.6;" xml:space="preserve">
<style type="text/css">
	.st0{fill:url(#SVGID_1_);}
	.st1{fill-rule:evenodd;clip-rule:evenodd;}
	.st2{fill-rule:evenodd;clip-rule:evenodd;fill:#100F1A;}
	.st3{fill-rule:evenodd;clip-rule:evenodd;fill:#CDCDCD;}
	.st4{fill-rule:evenodd;clip-rule:evenodd;fill:#F3B288;}
	.st5{fill-rule:evenodd;clip-rule:evenodd;fill:#E2DCE5;}
	.st6{fill-rule:evenodd;clip-rule:evenodd;fill:#2D2632;}
	.st7{fill-rule:evenodd;clip-rule:evenodd;fill:#00BFF9;}
</style>
<linearGradient id="SVGID_1_" gradientUnits="userSpaceOnUse" x1="-12.3884" y1="441.4632" x2="185.9106" y2="452.025" gradientTransform="matrix(1 0 0 1 0 -344.2135)">
	<stop  offset="0" style="stop-color:#BE4FD3"/>
	<stop  offset="0.7" style="stop-color:#EF737A"/>
	<stop  offset="0.8" style="stop-color:#FB7D65"/>
</linearGradient>
<path class="st0" d="M138.4,41.2c29.3,22.9,53.7,56.9,48.5,85.3c-5.3,28.6-40.5,51.9-75.6,60.9s-70.2,3.9-90.1-15.2
	C1.4,153-3.5,119.7,2.3,87.5C8.1,55.4,24.6,24.3,49.9,15C75.2,5.6,109.2,18,138.4,41.2L138.4,41.2z"/>
<g>
	<path class="st1" d="M44.1,102.8h41.1c0,0,1.9,11.9,2.3,21.3c0.2,6.9-1.9,44.9-1.7,50.2c0.2,5.2,1.9,7.8,2.7,13.5
		s0.4,40.3,0.4,42.7s0.9,4.8,0.9,4.8s-0.1,2-3.3,2.1s-5.6-2.3-5.6-2.3l0.6-1.2c0,0-0.5-1.2-0.5-1.9s0.3-2.8,0-4.4
		s-5.3-19.2-6.7-25.2c-1.4-5.9-1.6-12.8-1.6-15.8c-0.1-3-2.2-7.3-3.5-11.2s-1.9-7.6-1.9-11c-0.1-3.4-3.2-16.8-6.1-21.4
		c-2.9-4.5-7.9-3.2-7.9-3.2l-8.9-37.2L44.1,102.8z"/>
	<path class="st2" d="M96.3,245.5c0,0-3.6,1.2-6.7,1.1c-3.2,0-7.7-0.6-7.5-1.2c0.2-0.5,1.1-2.3,1.9-5.5s-1.9-8.6-1.9-8.6
		s-0.8-5.3,0-7.2c0.8-2,2.9-2.6,5.8-1.9c2.9,0.7,3.7,2.8,3.7,4c0.1,1.2-0.4,1.9-0.5,2.6c-0.1,0.7,0,2.2,0,3.2c0,0.9,0.3,5.6,0.7,8
		s4.4,4.9,4.4,4.9L96.3,245.5L96.3,245.5z"/>
	<path class="st3" d="M97,242.4c0,0,0.8,0.9,1,1.6s0.6,4.3-0.4,6c-0.9,1.7-4.2,1.9-7.4,1.9s-7.2-0.7-8.5-1.4
		c-1.2-0.7-1.9-2.2-1.9-4.2c0-2.1,1.1-4,1.1-4s-0.1,0.9,0.4,2.1c0.6,1.2,3.6,1.7,6.6,1.7c2.7,0,6.1,0,7.7-0.7
		C97.3,244.6,97,242.4,97,242.4"/>
	<path class="st2" d="M82.4,245.1c-0.6,0-1.3-1.2-1.3-1.2s-0.3-0.7-0.4-1.8c0-1.1-0.9-1.6-1.4-2.9c-0.4-1.3-0.6-3.5-0.6-3.5
		c0-0.5,0-1.5,0.2-2.2s0.6-1.6,0.7-2.2s0-2.1,0.2-2.9c0.2-0.7,0.7-1.6,1.1-1.6c0.3,0,0.5,0.1,0.7,1s0.6,1.8,0.9,2.7s1.7,3.2,2.1,5.2
		c0.4,2,0.8,3.2,0.6,4.7s-0.8,1.6-1.6,2.6C83,244,82.4,245.1,82.4,245.1"/>
	<path class="st1" d="M82.4,245.1c0.4-0.7,0.7-1.5,1.2-2.2c0.2-0.4,0.6-0.7,0.8-0.9c0.2-0.3,0.4-0.6,0.6-1c0.4-1.6-0.1-3.2-0.5-4.9
		c-0.3-1.6-1.1-3.1-1.9-4.6c-0.2-0.4-0.3-0.9-0.4-1.2c-0.1-0.4-0.2-0.8-0.4-1.2s-0.2-0.8-0.4-1.2l-0.1-0.6c0-0.2-0.1-0.3-0.3-0.4
		c0.1,0,0.2-0.1,0.4,0c0.1,0,0.2,0.1,0.3,0.2c0.1,0.2,0.2,0.4,0.3,0.6c0.1,0.4,0.2,0.8,0.4,1.2c0.1,0.4,0.2,0.8,0.4,1.2
		c0.1,0.4,0.2,0.7,0.4,1.1c0.7,1.5,1.6,3,1.9,4.7c0.2,0.8,0.4,1.6,0.5,2.5s0.1,1.7-0.1,2.6c-0.1,0.4-0.3,0.9-0.6,1.2
		s-0.6,0.6-0.9,0.9C83.5,243.8,83,244.4,82.4,245.1"/>
	<path class="st4" d="M64.5,221.2h-6.8c0,0,0.4,0.8,0,1.9c-0.4,1.1-2.8,1.9-2.8,1.9s1.6,3.9,6.2,3.6c4.6-0.3,4.7-3.6,4.7-3.6
		c-0.8-1.1-1.1-2-1.1-2L64.5,221.2z"/>
	<path class="st1" d="M68.8,102.8v24.9c0,0-2.6,16.9-2.9,21.7c-0.4,4.7-1.2,22.8-0.7,26.9c0.6,4.1,3.4,11.8,3.6,16.4
		c0.2,4.7-1.4,10.8-2.4,18.9c-1,8-0.7,11.4-0.7,11.4c-2.3,1.2-6.2,1.2-8.5,0v-3.8c0-2-1.6-16.6-2.3-21.6s-1-14.1-1.4-15.5
		s-2.2-5.9-2.7-7.7c-0.5-1.9-4-12.2-5.3-22.1c-1.3-9.9-1.4-49.6-1.4-49.6L68.8,102.8z"/>
	<path class="st3" d="M30.8,232.4c0,0-1.2,1.1-1.2,1.8s0.2,2.1,0.2,2.1s3,1.2,4.7,1.6c1.7,0.4,8.2,1.1,10.3,0.8
		c2.1-0.2,8-1.7,11.2-1.9s4.7,0.1,6.7,0s6-0.6,6.2-1.2c0.2-0.5-0.4-3.9-0.4-3.9l-0.3,0.1l-37.5,0.3L30.8,232.4z"/>
	<path class="st2" d="M56.1,227.3c0,0,1.2-1,1.4-2.1c0.2-1.1-0.6-3.5-0.6-3.5s-4.5,1.6-5.3,2c-0.7,0.5-3.5,1.8-5.5,2.9
		c-2,1.1-5,2-7.2,3s-2.9,1.1-2.9,1.1c0,1.9-0.9,3.2-0.9,3.2L56.1,227.3L56.1,227.3z"/>
	<path class="st2" d="M65.9,224.6c0.2,0,0.1,0.3,0.2,0.7s0.7,1.3,1.4,2.6c0.6,1.3,0.7,4.1,0.7,4.1s-3,0.8-5.3,0.9
		c-2.3,0-5.2-0.1-7.7,0.2s-5,1.2-10,1.6S35,233.9,35,233.9s1.6-2,2.5-2.7s4.8-2.2,7.7-3.2c2.9-0.9,8.7-3.7,8.7-3.7
		c0.9,0.1,2.9,2.4,3.7,2.9c0.8,0.5,3.2,0.7,4.7,0.4S65.9,224.5,65.9,224.6"/>
	<path class="st1" d="M66,224.6c-0.7,1-1.4,1.9-2.4,2.6c-0.2,0.2-0.5,0.3-0.8,0.4c-0.3,0.1-0.6,0.1-0.9,0.2c-0.6,0.1-1.2,0.1-1.8,0
		c-0.6,0-1.2-0.1-1.8-0.2c-0.3-0.1-0.6-0.2-0.9-0.4s-0.4-0.4-0.7-0.6c-0.4-0.4-0.9-0.8-1.3-1.2c-0.2-0.2-0.4-0.4-0.7-0.5
		c-0.2-0.2-0.5-0.3-0.6-0.3h0.2c-2.7,1.2-5.4,2.4-8.3,3.4c-1.4,0.4-2.8,0.9-4.2,1.4c-0.7,0.2-1.4,0.5-2.1,0.8s-1.4,0.6-2,1
		c0.6-0.5,1.3-0.7,1.9-1.1c0.7-0.3,1.4-0.6,2.1-0.9c1.4-0.6,2.8-1.1,4.2-1.6c2.7-1.1,5.4-2.4,8.1-3.7h0.2c0.4,0,0.7,0.2,0.9,0.4
		s0.5,0.4,0.7,0.6c0.4,0.4,0.9,0.8,1.3,1.2c0.2,0.2,0.4,0.4,0.6,0.6c0.2,0.2,0.4,0.3,0.7,0.4c0.5,0.2,1.1,0.2,1.7,0.3h1.7
		c0.6,0,1.1-0.1,1.6-0.4c0.9-0.6,1.7-1.6,2.4-2.5L66,224.6L66,224.6z"/>
	<path class="st3" d="M35.1,233.9c0,0-1.1,0-2.5-0.4c-1.5-0.5-1.8-1.1-1.8-1.1c0.6-1.1,2.2-1.2,3.1-1.3c0.9,0,2.4-0.4,2.4-0.4
		s0,0.7-0.2,1.4C35.9,232.8,35.2,233.9,35.1,233.9"/>
	<path class="st1" d="M43,237.3c-1.4,0-2.2-0.1-2.3-0.1v-0.7c0.1,0,1.9,0.2,4.9,0c1.7-0.1,4-0.6,6.1-1c1.6-0.3,3.1-0.6,4.1-0.7
		c1.3-0.1,3.1-0.1,4.7-0.2c1.3,0,2.7,0,3.8-0.1c2.6-0.1,4.5-0.9,4.5-0.9l0.2,0.6c-0.1,0-2,0.7-4.7,0.9c-1.2,0.1-2.6,0.1-3.9,0.1
		c-1.7,0-3.4,0-4.7,0.1c-1,0.1-2.4,0.4-4,0.7c-2.1,0.4-4.4,0.9-6.1,1.1C44.6,237.2,43.7,237.2,43,237.3"/>
	<path class="st1" d="M43.4,235c-4.3,0-8.2-0.9-8.3-0.9c-0.4,0-1.6,0-2.6-0.5c-1.1-0.4-1.9-1.1-1.9-1.1l0.3-0.4c0,0,0.8,0.6,1.8,1
		c0.9,0.4,2,0.4,2.4,0.4h0.1c0,0,5.2,1.2,10.1,0.8c3.2-0.2,5.4-0.7,7.2-1.1c1-0.2,1.9-0.4,2.7-0.5c2.5-0.3,5.4-0.2,7.7-0.2
		c2.2,0,5.2-0.8,5.2-0.8v0.2c-0.1,0-2.9,1.1-5.2,1.1c-2.2,0-5.2-0.1-7.7,0.2c-0.9,0.1-1.7,0.3-2.7,0.5c-1.8,0.4-4.1,0.8-7.3,1.1
		C44.8,234.9,44.1,235,43.4,235"/>
	<path class="st1" d="M56.4,231.4c0-0.2,0.2-0.5,0.5-0.5s0.5,0.2,0.5,0.5s-0.2,0.5-0.5,0.5S56.4,231.7,56.4,231.4"/>
	<path class="st1" d="M53,232.2c0-0.2,0.2-0.4,0.4-0.4c0.2,0,0.4,0.2,0.4,0.4s-0.2,0.4-0.4,0.4C53.2,232.6,53,232.4,53,232.2"/>
	<g>
		<path class="st3" d="M53,226.9c-0.1,0-0.2,0-0.2-0.1c-0.4-0.6-1.6-1.9-2.6-2.1c-0.2,0,0-0.1,0.1-0.3c0.1-0.1,0.4-0.2,0.6-0.1
			c1.2,0.4,2.2,1.9,2.4,2.1c0.1,0.1,0.1,0.4,0,0.5C53.3,226.8,53.2,226.9,53,226.9"/>
		<path class="st3" d="M50.1,228.2c-0.1,0-0.2,0-0.3-0.2c-0.3-0.5-1.2-1.7-1.9-2.1c-0.2-0.1,0-0.1,0.2-0.3c0.1-0.1,0.2-0.2,0.4-0.1
			c1.1,0.6,1.9,2.1,1.9,2.2c0.1,0.2,0,0.4-0.1,0.5C50.3,228.1,50.1,228.1,50.1,228.2"/>
		<path class="st3" d="M47.2,229.3c-0.1,0-0.3-0.1-0.3-0.2c0,0-0.4-1.4-1.4-2c0,0,0.1-0.1,0.2-0.2c0.1-0.2,0.4-0.2,0.4-0.2
			c1.1,0.9,1.4,2.2,1.4,2.2C47.5,229.1,47.5,229.3,47.2,229.3C47.3,229.3,47.3,229.3,47.2,229.3"/>
		<path class="st3" d="M80.6,242.8c0,0,0.2-0.4,0.3-0.6s0-2.2-0.3-3.1c-0.3-0.9-1.8-3.2-1.8-3.2s-0.3,0-0.4,0.2
			c-0.1,0.1-0.2,2.2,0,3.5c0.2,1.4,1,1.9,1.4,2.2C80.2,241.9,80.6,242.7,80.6,242.8"/>
	</g>
	<path class="st1" d="M79.9,240.8c0.3,0.2,0.9,0.7,0.9,0.9l0.2,0.2c0-0.2,0-0.5,0-0.8c-0.2-0.2-0.4-0.4-0.7-0.6
		c-0.2-0.2-0.4-0.4-0.6-0.6c-0.5-0.4-1-1.5-1.3-2c0,0.4,0,0.8,0.1,1.2c0.2,0.4,0.6,0.9,0.9,1.2C79.4,240.5,79.6,240.7,79.9,240.8"/>
	<path class="st2" d="M95.7,245.2c0,0,0.5,0,1.1-0.9c0.5-0.9,0.2-1.9,0.2-1.9s-1.2-1.2-1.4-1.5s-1-1.6-1.3-2.3s-1.2-2.9-1.5-4.1
		c-0.2-1.2-1-2.2-1-2.6c0-0.4,0.2-2.1,0.1-2.2s-0.9-0.9-1.2-0.4c-0.2,0.4-0.1,2.9,0,5.5s0,5.2,0.6,6.3
		C91.7,242.1,95.7,245.3,95.7,245.2"/>
	<path class="st1" d="M95.7,245.2c-0.7-0.4-1.4-0.9-2-1.4s-1.2-1-1.9-1.6c-0.3-0.3-0.6-0.6-0.8-1s-0.3-0.8-0.4-1.2
		c-0.1-0.8-0.2-1.6-0.2-2.4v-4.9c-0.1-0.8-0.1-1.6-0.1-2.4c0-0.2,0-0.4,0-0.6c0-0.1,0-0.2,0.1-0.3c0-0.1,0.2-0.2,0.3-0.3
		c0.3,0,0.5,0.1,0.6,0.2c0.2,0.1,0.3,0.3,0.4,0.5c-0.1-0.1-0.3-0.2-0.5-0.3s-0.4-0.1-0.5-0.1s-0.1,0.2-0.1,0.4v0.6
		c0,0.8,0,1.6,0.1,2.4c0.1,1.6,0.2,3.2,0.2,4.9c0,0.8,0.1,1.6,0.2,2.4c0.1,0.4,0.1,0.7,0.3,1.1c0.2,0.3,0.4,0.6,0.7,0.9
		c1.1,1.2,2.3,2.2,3.5,3.4"/>
	<path class="st3" d="M95.9,245.9H82.5v-0.8c0,0,0.7-2.5,6.1-2.4c5.3,0.2,7.2,2.4,7.2,2.4L95.9,245.9z"/>
	<path class="st1" d="M87.7,246.1c-2.2,0-5.8-0.2-6.6-1.8c-0.6-1.2-0.4-1.8-0.4-1.9l0.1-0.3c0,0,0.2,0.9,0.7,1.9
		c0.4,1,2.9,1.6,6.4,1.5c2.7,0,6,0,7.6-0.7c1.4-0.6,1.3-2.6,1.3-2.7l0.2,0.3c0.1,0.8,0.1,2.3-1.4,2.9c-1.7,0.7-5.1,0.7-7.9,0.7
		C87.9,246.1,87.7,246.1,87.7,246.1"/>
	<path class="st3" d="M92.6,238.3c-0.1,0-0.1,0-0.2,0c0,0-4.6-2.7-7-3s-3.7,0-3.7,0c-0.2,0-0.5-0.1-0.5-0.3s0.1-0.5,0.3-0.5
		c0,0,1.4-0.4,4.1,0c2.6,0.4,7.1,3,7.3,3.1s0.2,0.4,0.1,0.6c-0.1,0.1-0.2,0.2-0.4,0.2"/>
	<path class="st3" d="M83.5,237.3c-0.2,0-0.3-0.1-0.4-0.2c-0.1-0.2,0-0.5,0.2-0.6c0.8-0.3,2.7-0.7,4.4-1.1c0.8-0.2,1.5-0.3,1.9-0.4
		c1.3-0.3,2.6,0.2,3.3,0.6l0.2,0.1c0.2,0.1,0.3,0.4,0.2,0.6c-0.1,0.2-0.4,0.3-0.6,0.2l-0.2-0.1c-0.7-0.3-1.7-0.7-2.7-0.5
		c-0.4,0.1-1.1,0.2-1.9,0.4c-1.6,0.3-3.5,0.7-4.2,1.1c0,0-0.1,0-0.2,0"/>
	<path class="st3" d="M91.7,234.3c-0.1,0-0.2,0-0.2-0.1c0,0-4.6-3.2-8.9-2.1c-0.2,0.1-0.5-0.1-0.6-0.3s0.1-0.5,0.3-0.6
		c4.7-1.3,9.5,2.1,9.7,2.2c0.2,0.1,0.2,0.4,0.1,0.6C92,234.3,91.9,234.3,91.7,234.3"/>
	<path class="st3" d="M83.1,233.8c-0.1,0-0.3-0.1-0.4-0.2c-0.1-0.2,0-0.5,0.2-0.6s4.6-2.4,8.5-1.6c0.2,0,0.4,0.3,0.3,0.5
		c0,0.2-0.3,0.4-0.5,0.3c-3.6-0.8-7.9,1.4-7.9,1.4c-0.1,0-0.1,0-0.2,0"/>
	<path class="st4" d="M54.4,45.3c0.4,3.6,1,5.9,1,5.9c1,1.5,3.7,1,6.9-0.8c3.6-1.9,6.4-5.8,6.4-5.8c-2.9-6-1.5-14.9-1.5-14.9
		L53.4,30c0,0,0.4,10.9,0.9,15.1"/>
	<path class="st3" d="M77.9,45.8c0,0-12.1,11.4-20.8,9.7c-8.7-1.7-8.8-8.1-8.8-8.1c3.4,0.4,6.1-2.1,6.1-2.1s1.4,1.6,3.2,2.1
		c4.8,1.1,10.5-5.2,10.5-5.2l2.5,1.1c0,0,4.5,1.3,5.2,1.4C76.6,45,77.8,45.8,77.9,45.8"/>
	<path class="st1" d="M48.3,47.4c0,0,0,0.3,0.1,0.7l4,4.2l-0.6-5.5C50.8,47.2,49.6,47.5,48.3,47.4"/>
	<path class="st1" d="M59.8,55.6c0.8,0,1.6-0.2,2.4-0.4l14.9-8.8c0.4-0.4,0.7-0.6,0.7-0.6s-1.1-0.8-1.9-0.9
		c-0.4-0.1-2.1-0.5-3.4-0.9L59.1,54.4L59.8,55.6L59.8,55.6z"/>
	<path class="st5" d="M72.7,44.1c0,0-1.2,2.6-4.5,5.7s-9.1,4.4-9.1,4.4c0.5-3.4-1.5-6.9-1.5-6.9s0.7,0,3.5-0.6s6.7-6.7,7-6.9
		c0.2-0.1,0.5,0.4,0.9,1s1.7,1.6,2.6,2.1C72.6,43.5,72.8,44.1,72.7,44.1"/>
	<path class="st6" d="M40.5,92.6h48.8c0,0,0.8,2.8,1.6,9.6c0.8,6.8,0.7,9.3,0.7,14.9s0.6,12.6,0.6,12.6s-0.7,1.4-3.1,1.4
		c-2.3,0.1-15-1.7-23.5-2.2s-18.1-1.2-21.2-1s-4.4-0.6-4.4-0.6c-0.8-4.1-0.2-10.2,0.4-13.8c0.6-3.6,0.2-8.9,0-11.3L40.5,92.6
		L40.5,92.6z"/>
	<path class="st1" d="M42.6,103.8l-2.2,0.2l0.3,3.1c0,0,1.7-1.4,4.4-2.3c2.7-0.9,6.8-6.1,6.8-6.1L42.6,103.8L42.6,103.8z"/>
	<path class="st1" d="M90.9,102.2c-0.3-2.8-0.7-4.9-0.9-6.4L71.7,106c0,0,6.6,3.4,9.9,4c3.3,0.6,5.2,0.3,7.1-2
		c0.8-1,1.7-2.3,2.4-3.6C91.1,103.7,91.1,103,90.9,102.2"/>
	<path class="st1" d="M40.8,92.6v9.6c0.2,2.1,0.3,4.2,0.3,6.3c0,1.1,0,2.1-0.1,3.2s-0.2,2.1-0.4,3.1c-0.2,2.1-0.4,4.1-0.6,6.2
		c0,2.1,0,4.2,0.4,6.2l-0.2-0.3c0.4,0.2,0.9,0.4,1.4,0.4c0.5,0.1,1.1,0.1,1.6,0.1h1.6h1.7c2.2,0,4.4,0.1,6.6,0.2
		c4.4,0.2,8.8,0.6,13.2,0.8c4.4,0.3,8.8,0.8,13.2,1.3l6.6,0.7c2.2,0.2,4.4,0.6,6.1-0.9c-0.2,0.6-0.6,1-1.1,1.2
		c-0.5,0.3-1.1,0.4-1.7,0.5c-1.2,0-2.2-0.1-3.4-0.2c-2.2-0.2-4.4-0.4-6.6-0.7c-4.4-0.5-8.7-0.9-13.1-1.2c-4.4-0.2-8.8-0.6-13.2-0.7
		c-2.2-0.1-4.4-0.2-6.6-0.2c-2.1-0.1-4.4,0.4-6.7-0.7h-0.1v-0.3c-0.4-2.1-0.4-4.2-0.4-6.4c0.1-2.1,0.2-4.2,0.6-6.3
		c0.1-1.1,0.3-2.1,0.4-3.1c0.1-1.1,0.1-2.1,0.1-3.1c0-2.1-0.1-4.2-0.3-6.2v-9.7L40.8,92.6L40.8,92.6z"/>
	<path class="st1" d="M57.7,47.4c-0.9,3.4-0.5,6.9-0.5,6.9l-1.3-0.2c0,0-0.1-1.9,0.4-3.7C56.8,48.7,57.8,47.4,57.7,47.4"/>
	<path class="st5" d="M57.7,47.4c-2.1-0.6-4-3.2-4-3.2c-1.6,1.1-3.6,5.2-3.6,5.2c2.2,4.4,5.7,4.7,5.7,4.7
		C55.6,50.4,57.7,47.5,57.7,47.4"/>
	<path class="st1" d="M58.5,49.2c0.7,1.6,1.2,3.4,1.1,5.2L59.2,54c1.4-0.3,2.8-0.7,4.1-1.3c1.3-0.6,2.6-1.2,3.8-2.1
		c1.2-0.8,2.2-1.9,3.1-3s1.8-2.2,2.6-3.6c-0.6,1.3-1.5,2.5-2.4,3.7c-0.9,1.1-1.9,2.2-3.1,3.1c-1.2,0.9-2.5,1.6-3.8,2.2
		c-1.4,0.6-2.7,1.1-4.2,1.5l-0.5,0.1v-0.5h0.1C59.3,52.7,59,50.9,58.5,49.2"/>
	<path class="st6" d="M87.7,50.3l-1.2,42.2c0,0-42.6-2.6-45.9-3C37.1,89.1,30.4,85,30.4,85s0.7-1.6,1.1-2.5c0.6-1.6,1-3.3,1.2-5.4
		c0.3-3.2,0.7-3.7,2.2-8.1c1.4-4.4,2.4-8.7,3.5-11.6c1.1-3,8.4-8.6,9-9.3c0.7-0.7,1.2-1.3,1.7-1.4c0,0,0.6,5.8,8.6,7.2
		c9.7,1.7,18.4-9.7,18.4-9.7s1.3,0.6,2.7,1.6C80.3,46.9,83.7,48,87.7,50.3"/>
	<path class="st6" d="M52,98.9l-4.2-8.2c0,0-6.6-3.7-7.9-4.2c-1.4-0.6-2.3-0.3-2.3-0.3s-0.8-0.9-1.2-1.2c-0.4-0.3-1.6-0.9-2.4-1.2
		c-0.9-0.3-2.5-1.2-2.5-1.2c-0.3,0.9-0.7,1.7-1.1,2.5c-1.1,2.2-1.7,5.9-1.2,9.4c0.4,3.6,1.3,7.4,2.2,8c0.9,0.6,2.5,1.7,4.7,1.7
		s5.5,0.4,7.2-0.4C44.8,102.8,51.9,98.9,52,98.9"/>
	<path class="st4" d="M43,88.1c0,0-2.3-1.2-3.4-1.7s-2-0.2-2-0.2s-0.6-2.7,0.1-3.8c0.7-1.1,2.6-4.3,4-4.6c1.4-0.2,2.2,0.7,3.2,2
		c1.1,1.2,1.9,1.7,1.9,1.7L43,88.1z"/>
	<path class="st1" d="M46.1,81.3c-0.5-0.4-1-0.9-1.4-1.3c-0.4-0.5-0.8-0.9-1.2-1.3c-0.4-0.4-0.9-0.6-1.4-0.6c-0.2,0-0.5,0-0.7,0.2
		c-0.2,0.1-0.4,0.3-0.6,0.6c-0.8,0.8-1.5,1.9-2.2,2.9l-0.5,0.7c-0.1,0.2-0.2,0.4-0.3,0.7c-0.1,0.6-0.1,1.2-0.3,1.8
		c-0.4-0.6-0.4-1.2-0.3-1.9c0-0.3,0.1-0.7,0.3-1l0.5-0.8c0.7-1.1,1.4-2.1,2.3-3c0.2-0.2,0.5-0.4,0.8-0.6c0.2-0.1,0.3-0.2,0.5-0.2
		s0.4-0.1,0.6-0.1c0.7,0,1.4,0.4,1.9,0.8s0.9,0.9,1.3,1.4c0.4,0.4,0.8,0.9,1.2,1.2l-0.4,0.6L46.1,81.3z"/>
	<path class="st6" d="M52,98.9c-2.2-0.2-5.1-1.7-6.2-3c-1.1-1.2-3.5-2.9-4.2-4.7c-0.7-1.8,0.6-4.8,2.1-6.2c1.4-1.4,2.8-5.7,5.3-6.2
		s5.1,2.9,7.2,4.6s6.1,2.7,8.4,3.4c2.2,0.6,2.3,0.9,3.4,1.6c1.1,0.6,6.2,0.2,6.2,0.2s0.2-1.6,0.2-2.6c0.1-1,0.4-7.4,0.9-10.4
		s1.4-3.9,1.7-6.7c0.2-2.7-0.9-6.6,0.2-8.7c1.1-2.2,3.5-4.1,4.8-5.1s1.8-2.7,2.6-3.4c0.9-0.7,3.1-1.2,3.1-1.2c4,2.4,5,4.1,5.8,5.7
		s2.9,5.3,3.1,6.7c0.2,1.4,0.6,5.2-0.5,8.9c-1.1,3.7-2.4,7.1-2.7,10.9s-1.7,10.9-3.6,16.2c-1.8,5.4-3.5,7.9-5.9,8.5s-6,0.7-12.1-1.4
		c-6.1-2.1-10.4-4.4-12.7-5.2S52.1,99,52,98.9"/>
	<path class="st4" d="M65.7,87.2c0,0,1.2,1.4,2.2,1.7c1.1,0.2,5.5-0.4,6.1-0.3s2.3,1.2,3,1.6s1.3,1.6,3.2,2.1
		c1.9,0.6,2.6-0.1,2.6-0.5s-1.2-1.1-2-1.7s-1.7-1.8-2-2.1c-0.4-0.3-3.6-1.9-3.6-1.9c0.8,0.2,3,0.6,3.8,0.8c0.8,0.2,2.8,1.5,3.7,1.9
		s2.5,0.7,2.7,0s-1.1-1.7-0.8-1.6c0.2,0,1.4,0.4,1.7-0.4c0.3-0.7-0.8-1.4-2.1-2.4S81.6,82,81,81.5c-0.7-0.4-3.9-0.9-4.1-0.9
		c-0.2-0.1,0-0.4,0-0.4c0.9,0,3.5-0.4,3.5-0.4s1,1.1,2,2.1c1.1,1.1,3.2,2.2,3.4,1.4c0.2-0.7-1.1-2.2-2.2-3.4
		c-1.1-1.2-1.7-2.9-2.5-3.3s-1.8,0-3,0.2c-1.2,0.1-2.7,0.2-3.8,0.5c-1.1,0.2-2.2,2.4-3.2,3.9s-1.9,2.1-3.2,3.5
		C66.7,86,65.8,87.3,65.7,87.2"/>
	<path class="st1" d="M82.9,91.8c0,0.2-0.1,0.4-0.2,0.6c-0.2,0.1-0.4,0.2-0.6,0.2c-0.4,0.1-0.9,0.1-1.2,0c-0.8-0.1-1.6-0.5-2.2-0.9
		c-0.3-0.2-0.6-0.5-0.9-0.8c-0.3-0.3-0.6-0.5-0.9-0.7c-0.7-0.4-1.4-0.8-2.1-1.1c-0.2-0.1-0.4-0.2-0.5-0.2s-0.3,0-0.5,0L72.6,89
		c-0.8,0.1-1.6,0.1-2.4,0.2c-0.4,0-0.8,0-1.2,0c-0.4,0-0.9,0-1.2-0.3c-0.7-0.4-1.3-1.1-1.7-1.7c0.6,0.5,1.2,1,1.9,1.3
		c0.3,0.2,0.7,0.2,1.1,0.2h1.2c0.8,0,1.6-0.1,2.4-0.2l1.2-0.1h0.7c0.2,0,0.4,0.1,0.6,0.2c0.7,0.4,1.4,0.8,2.1,1.2
		c0.2,0.1,0.3,0.2,0.5,0.3c0.2,0.1,0.3,0.2,0.4,0.4c0.3,0.2,0.6,0.6,0.9,0.7c0.6,0.5,1.3,0.7,2.1,0.9c0.4,0.1,0.7,0.1,1.1,0.1
		s0.8-0.1,0.9-0.6"/>
	<path class="st1" d="M85.4,88.8c0,0.2-0.3,0.4-0.5,0.4c-0.2,0.1-0.5,0.1-0.7,0.1c-0.5,0-0.9-0.1-1.4-0.2c-0.9-0.4-1.6-0.9-2.4-1.3
		c-0.4-0.2-0.8-0.4-1.2-0.6c-0.4-0.1-0.9-0.2-1.3-0.3c-0.9-0.2-1.7-0.4-2.7-0.7c0.9,0.1,1.8,0.2,2.7,0.4c0.4,0.1,0.9,0.1,1.4,0.2
		c0.4,0.1,0.9,0.4,1.2,0.6c0.8,0.4,1.6,0.9,2.4,1.2c0.4,0.1,0.9,0.2,1.2,0.4c0.2,0,0.4,0.1,0.6,0C85.1,89,85.4,88.9,85.4,88.8"/>
	<path class="st1" d="M85.9,83.2c0,0.1-0.2,0.2-0.3,0.2s-0.3,0-0.4,0c-0.3,0-0.6-0.2-0.9-0.2c-0.6-0.2-1.1-0.6-1.6-0.9
		c-0.5-0.4-0.9-0.8-1.3-1.2c-0.4-0.4-0.8-0.8-1.2-1.2h0.2l-1.7,0.2c-0.6,0-1.2,0.1-1.7,0c0.6-0.1,1.2-0.2,1.7-0.3l1.7-0.4h0.2
		c0.4,0.5,0.7,0.9,1.2,1.4c0.4,0.4,0.7,0.9,1.2,1.2s0.9,0.7,1.4,1c0.2,0.1,0.5,0.2,0.8,0.4C85.4,83.4,85.8,83.5,85.9,83.2"/>
	<path class="st1" d="M86.1,87.1c-0.3,0.2-0.8,0.3-1.2,0.2c-0.4,0-0.8-0.2-1.2-0.5c-0.7-0.4-1.4-0.9-2.1-1.3l-1.1-0.7
		c-0.4-0.2-0.7-0.5-1-0.6c-0.7-0.2-1.6-0.2-2.4-0.4c0.8-0.2,1.7-0.2,2.6-0.1c0.2,0,0.5,0.1,0.6,0.2c0.2,0.1,0.4,0.2,0.5,0.4l1,0.7
		c0.7,0.5,1.3,1,2,1.4c0.4,0.2,0.7,0.4,1.1,0.6c0.4,0.1,0.8,0.1,1.2,0"/>
	<path class="st1" d="M72.9,81.6c0.1-0.1,0.2-0.2,0.3-0.2c0.2,0,0.3,0.2,0.3,0.4c-0.1,0.8-0.4,1.5-0.9,2.1c-0.4,0.6-0.9,1.2-1.6,1.6
		c0.4-0.6,0.7-1.3,1-1.9C72.4,82.9,72.6,82.3,72.9,81.6L72.9,81.6z"/>
	<path class="st1" d="M80.6,85.3c0.2,0.3,0.2,0.6,0.2,0.9c-0.1,0.2-0.2,0.6-0.6,0.6c-0.1-0.4-0.1-0.6,0-0.8
		C80.2,85.7,80.3,85.5,80.6,85.3"/>
	<path class="st1" d="M76.6,63.1c0.2,1.1,0.4,2.1,0.6,3.1c0.1,1.1,0.2,2.2,0.1,3.2c-0.1,1.1-0.5,2.2-0.9,3.1c-0.4,1-0.8,1.9-1.1,2.9
		c0-1.1,0.2-2.2,0.5-3.2s0.6-2,0.7-3c0.1-1,0.1-2.1,0.1-3.1C76.4,65.2,76.4,64.1,76.6,63.1"/>
	<path class="st1" d="M83.4,53.1c-0.1,0.6-0.3,1.1-0.6,1.6c-0.2,0.2-0.4,0.4-0.6,0.6c-0.2,0.2-0.4,0.3-0.6,0.5
		c-0.4,0.3-0.9,0.6-1.3,0.9c-0.4,0.3-0.9,0.6-1.4,0.9c0.2-0.5,0.6-0.9,0.9-1.4s0.7-0.8,1.2-1.1c0.2-0.2,0.4-0.4,0.6-0.5
		c0.2-0.1,0.4-0.3,0.6-0.4C82.6,53.8,82.9,53.5,83.4,53.1"/>
	<path class="st1" d="M64.4,86.8c-1.9-0.4-3.8-0.8-5.6-1.5c-0.9-0.4-1.8-0.8-2.6-1.4c-0.8-0.6-1.4-1.3-2.2-2
		c-0.7-0.7-1.4-1.3-2.2-1.9c-0.7-0.6-1.6-1-2.4-1c-0.4,0-0.8,0.1-1.2,0.4c-0.4,0.2-0.7,0.6-1,0.9c-0.6,0.7-1.1,1.5-1.6,2.3
		s-0.9,1.7-1.6,2.5c-0.7,0.7-1.2,1.4-1.6,2.3c-0.4,0.8-0.6,1.7-0.6,2.6s0.4,1.7,1.1,2.4c0.6,0.7,1.3,1.4,2,2c0.4,0.3,0.7,0.6,1.1,1
		c0.3,0.4,0.6,0.6,1,0.9c1.5,1.1,3.3,1.9,5.1,2.1c1.8,0.4,3.6,0.9,5.4,1.4c0.9,0.2,1.8,0.5,2.7,0.9c0.9,0.4,1.7,0.7,2.6,1.1
		c3.4,1.5,6.7,2.9,10.2,4.1c1.7,0.6,3.5,1.1,5.3,1.3s3.6,0.2,5.4-0.1c0.9-0.2,1.6-0.6,2.2-1.2c0.6-0.6,1.2-1.3,1.6-2.1
		c0.9-1.6,1.6-3.2,2.4-4.9c-0.5,1.8-1.1,3.6-1.9,5.2c-0.4,0.8-0.9,1.6-1.7,2.3c-0.7,0.7-1.6,1.2-2.6,1.4c-1.8,0.4-3.7,0.4-5.6,0.2
		c-1.9-0.2-3.6-0.7-5.4-1.3c-3.5-1.2-6.9-2.6-10.2-4.1c-0.8-0.4-1.7-0.7-2.5-1.1s-1.7-0.6-2.6-0.8c-1.7-0.5-3.6-0.9-5.3-1.4
		c-1-0.1-2-0.4-2.9-0.8s-1.8-0.9-2.6-1.4c-0.4-0.3-0.8-0.7-1.1-1c-0.3-0.3-0.7-0.7-1-1c-0.7-0.6-1.4-1.3-2.1-2.1
		c-0.3-0.4-0.6-0.8-0.9-1.3c-0.2-0.5-0.4-1.1-0.4-1.6c0-1.1,0.3-2.1,0.7-2.9c0.4-0.9,1-1.7,1.7-2.5c0.6-0.6,1.1-1.6,1.6-2.4
		s1-1.7,1.7-2.4c0.3-0.4,0.7-0.7,1.2-1c0.4-0.2,1-0.4,1.6-0.4c1.1,0,2.1,0.6,2.9,1.1c0.8,0.6,1.5,1.2,2.2,1.9
		C57,84.5,60.9,85.4,64.4,86.8"/>
	<path class="st1" d="M84.9,51.5c-0.6-0.1-1.1-0.3-1.6-0.6s-0.9-0.5-1.4-0.8c-0.4-0.3-0.9-0.6-1.3-0.9c-0.4-0.4-0.8-0.7-1.2-1.1
		c0.6,0.2,1.1,0.4,1.6,0.6s0.9,0.5,1.4,0.7c0.4,0.2,0.9,0.6,1.3,0.9C84.2,50.8,84.6,51.1,84.9,51.5"/>
	<path class="st1" d="M75.8,49c-1.9,2-4.1,3.7-6.4,5c-2.4,1.3-5,2.4-7.7,2.7c-1.4,0.2-2.7,0.2-4.1,0s-2.7-0.4-4-0.9
		c-1.3-0.4-2.6-1-3.7-1.8c-0.6-0.4-1.1-0.9-1.5-1.4c-0.4-0.6-0.8-1.1-0.9-1.8c0.5,1.2,1.6,2.2,2.7,2.9s2.4,1.2,3.7,1.6
		c2.6,0.6,5.2,1,7.9,0.6c2.6-0.4,5.1-1.3,7.5-2.5c2.4-1.2,4.7-2.7,6.8-4.4"/>
	<path class="st1" d="M41.6,87.7c-0.3-0.1-0.6-0.3-1-0.5c-0.3-0.1-0.6-0.3-0.9-0.4c-0.7-0.1-1.4-0.2-2.2-0.4c-0.5,0-1.1,0.1-1.6,0
		c-0.2,0-0.6,0-0.9-0.1c-0.2-0.1-0.6-0.1-0.8-0.3H35c0.2,0,0.6,0,0.8-0.1c0.6-0.1,1.1-0.2,1.6-0.2c0.7,0.1,1.5,0.2,2.2,0.2
		c0.4,0.1,0.8,0.2,1.1,0.4c0.3,0.2,0.7,0.4,1,0.6l-0.4,0.6L41.6,87.7z"/>
	<path class="st1" d="M31.6,82.1c0.4,0.2,0.9,0.4,1.3,0.6s0.8,0.4,1.2,0.6c0.5,0.2,0.9,0.4,1.3,0.7c0.2,0.1,0.4,0.2,0.6,0.4
		c0.1,0.1,0.2,0.2,0.3,0.2c0.1,0.1,0.1,0.2,0,0.5c-0.3,0.1-0.4,0.1-0.5,0s-0.2-0.1-0.2-0.2c-0.2-0.1-0.4-0.2-0.6-0.3
		c-0.4-0.2-0.8-0.4-1.2-0.6c-0.4-0.2-0.9-0.4-1.3-0.6s-0.9-0.5-1.2-0.7L31.6,82.1L31.6,82.1z"/>
	<path class="st1" d="M30.7,85.1c-0.7,1.5-1,3.1-1.2,4.7s-0.1,3.3,0.1,4.9s0.5,3.3,0.9,4.9c0.2,0.7,0.4,1.6,0.9,2.2
		c0,0.1,0.1,0.1,0.1,0.1s0.2,0.1,0.2,0.2c0.2,0.1,0.3,0.2,0.5,0.3c0.4,0.2,0.7,0.4,1.1,0.6c0.7,0.3,1.5,0.5,2.3,0.6
		c0.8,0,1.7,0,2.5,0.1c0.8,0,1.7,0.1,2.5,0c0.8,0,1.6-0.1,2.3-0.5l4.4-2.4l2.2-1.2c0.7-0.4,1.5-0.7,2.4-0.9
		c-0.6,0.6-1.3,1.1-2.1,1.5l-2.2,1.2l-4.4,2.4c-0.9,0.4-1.7,0.5-2.6,0.6c-0.9,0-1.7,0-2.6,0s-1.6,0-2.5-0.1c-0.9,0-1.7-0.2-2.6-0.6
		c-0.4-0.2-0.8-0.4-1.2-0.6c-0.2-0.1-0.4-0.2-0.6-0.4c-0.1-0.1-0.2-0.1-0.2-0.2c-0.1-0.1-0.2-0.2-0.3-0.3c-0.6-0.8-0.7-1.6-1-2.5
		c-0.4-1.7-0.7-3.3-0.9-5c-0.2-1.7-0.2-3.4,0-5.1s0.6-3.4,1.4-4.9l0.6,0.3L30.7,85.1z"/>
	<path class="st1" d="M42.1,69.3c0.1,0.6,0.1,1.3,0.1,1.9s-0.1,1.2-0.1,1.9c-0.1,0.6-0.2,1.2-0.3,1.9c-0.1,0.6-0.2,1.2-0.3,1.9
		c-0.2-0.6-0.4-1.2-0.4-1.9s0-1.2,0.1-1.9c0.1-0.6,0.2-1.2,0.3-1.9S41.8,69.9,42.1,69.3"/>
	<path class="st2" d="M47.4,21.3c0,0-7.6-8.8-1.1-15.2c5-4.9,11,2.4,11,2.4L47.4,21.3z"/>
	<path class="st7" d="M52,38.4c-4-10.3-3.1-22.9,2.2-29.1l0.2,0.2c-5.1,6.1-6.1,18.7-2.2,28.7L52,38.4"/>
	<path class="st4" d="M64.2,33.3c0,0-8.6,7.1-11.6,5.3c-8.1-4.6-5.2-20.1-5.2-20.1c1-5.7,6.6-10.3,12.9-10.3c7,0,12.7,5.5,12.7,12.2
		c0,0.4,0,0.9-0.1,1.4"/>
	<path class="st1" d="M64.2,19c0,0,0.9,1.1,0.7,2.3c-0.1,1.2-0.7,3.1,0.5,3.2c1.1,0.1,1.9-1.8,3-2.6c0.6-0.4,2.6-0.1,4.1,0.2
		l0.3-0.4c0-0.4,0.1-0.9,0.1-1.4c0-1.3-0.2-2.5-0.6-3.7L64.2,19L64.2,19z"/>
	<path class="st1" d="M47.3,18.5c-0.4,2.9-0.4,5.9-0.2,8.7c0.1,1.4,0.4,2.9,0.8,4.3c0.4,1.4,0.9,2.7,1.7,3.9
		c0.8,1.2,1.9,2.2,3.1,2.9c0.6,0.3,1.2,0.2,1.9,0.1s1.4-0.4,2-0.7c2.6-1.2,5.1-2.8,7.5-4.5c-1.1,1-2.2,1.9-3.5,2.7
		c-1.2,0.8-2.4,1.6-3.8,2.2c-0.7,0.3-1.4,0.6-2.1,0.7c-0.7,0.1-1.6,0.2-2.4-0.1c-1.3-0.7-2.4-1.9-3.2-3.1c-1.6-2.6-2.2-5.6-2.5-8.5
		c-0.2-2.9,0-5.9,0.6-8.8"/>
	<path class="st4" d="M67.2,23.5c1.1-1.7,2.6-2.7,3.9-2.7c1.7,0,2.9,2.1,2.1,5.1S69.7,31,68,31c-0.6,0-1.5-0.2-1.8-0.8"/>
	<path class="st1" d="M66.1,30.1c0.2,0.4,0.7,0.6,1.1,0.7s0.9,0.1,1.2,0c0.8-0.2,1.6-0.7,2.2-1.2c0.6-0.6,1.1-1.2,1.6-2
		c0.5-0.8,0.7-1.6,0.9-2.4c0.1-0.8,0.1-1.7-0.1-2.4c-0.2-0.7-0.8-1.4-1.6-1.6c-0.7-0.2-1.6,0.1-2.3,0.6c-0.7,0.4-1.3,1.1-1.9,1.8
		c0.4-0.8,0.9-1.5,1.7-2.1c0.7-0.6,1.6-1,2.6-0.8c1,0.2,1.7,1,2,1.9s0.3,1.9,0.1,2.7c-0.3,1.8-1.3,3.4-2.7,4.6
		c-0.7,0.6-1.5,1.1-2.4,1.2c-0.4,0.1-0.9,0-1.3-0.1C66.8,30.8,66.4,30.6,66.1,30.1"/>
	<path class="st2" d="M61.6,11.6c-3.9,1.2-6.8-3.1-9.9-4.3s-5.3,1.2-5.3,1.2V12c3.5-1.2,3.3,1.3,7.8,1.7s7.4-1.2,7.4-1.2V11.6
		L61.6,11.6z"/>
	<path class="st2" d="M50.9,4.3c0,0-0.3,3.8,1.5,6.4c1.8,2.5,7.6,2.4,7.6,2.4l11.1-3.6c0,0,1.3-2.2,1.3-3.5s-5.8-3.9-7.2-4.1
		s-5.2,1.2-8.6,2C53.1,4.7,50.9,4.4,50.9,4.3"/>
	<path class="st1" d="M66.1,4.3c0.5,0.6,0.9,1.2,1.2,1.9c0.1,0.4,0.3,0.7,0.3,1.1s-0.1,0.9-0.2,1.2c-0.2,0.7-0.6,1.4-1,2.1
		C66,11.3,65.7,12,65,12.5l-0.6-0.9c0.5-0.3,1.1-0.9,1.5-1.5s0.8-1.2,1.2-1.9c0.4-0.6,0.4-1.4,0.1-2.1S66.7,4.8,66.1,4.3"/>
	<path class="st1" d="M62.5,13c-0.9,0.1-1.7,0-2.5-0.2s-1.6-0.4-2.3-0.8c-0.7-0.4-1.4-0.8-2.1-1.4L53.8,9c-0.6-0.5-1.2-0.9-1.9-1.2
		c-0.7-0.3-1.4-0.4-2.2-0.4s-1.5,0-2.2,0.3c-0.7,0.2-1.4,0.7-1.8,1.4c0.2-0.8,0.8-1.5,1.6-1.9c0.7-0.4,1.6-0.5,2.4-0.5
		s1.7,0.1,2.5,0.4s1.4,0.8,2.1,1.3c0.6,0.5,1.2,1.1,1.8,1.6s1.2,0.9,1.9,1.2c1.4,0.7,2.9,1.1,4.4,1L62.5,13L62.5,13z"/>
	<path class="st1" d="M69.4,8.2c-0.5,0.8-1.1,1.6-1.7,2.4l1.3-0.4c0.4-0.5,0.7-1,1.1-1.6c0.2-0.5,0.6-1.1,0.5-1.8
		c0-0.4-0.2-0.7-0.4-0.9c-0.2-0.2-0.4-0.4-0.6-0.7c-0.8-0.8-1.7-1.5-2.7-2.1c-0.5-0.3-0.9-0.6-1.4-0.9c-0.1,0-0.2-0.1-0.2-0.1
		c-0.1,0-0.1,0-0.2,0H65c0.2,0.1,0.3,0.2,0.5,0.3c0.4,0.3,0.9,0.7,1.4,1c0.9,0.7,1.7,1.4,2.4,2.2C69.6,6,70,6.5,70,6.8
		C69.9,7.2,69.7,7.7,69.4,8.2"/>
	<path class="st1" d="M57.7,3.5c-0.4,0.1-0.9,0.2-1.3,0.3c-0.1,0-0.2,0-0.3,0.1c0.7,0,1.4,0.1,2,0.4c0.6,0.2,1.2,0.6,1.7,1.1
		c1,0.9,1.7,2.2,2.2,3.6c-0.1-0.7-0.3-1.4-0.6-2.1s-0.7-1.3-1.2-1.8c-0.5-0.6-1.1-1-1.8-1.3C58.2,3.7,57.9,3.6,57.7,3.5"/>
	<path class="st1" d="M52.9,4.4c-0.8,0-1.4,0-1.8,0c0.7,0.3,1.4,0.6,2.1,1.1s1.5,1.1,2.2,1.7s1.3,1.4,2,2.1c0.4,0.3,0.7,0.7,1.1,0.9
		s0.9,0.5,1.3,0.6c-0.8-0.6-1.4-1.2-2.1-1.9c-0.6-0.7-1.2-1.4-1.9-2.2c-0.7-0.7-1.4-1.4-2.2-1.9C53.4,4.7,53.1,4.6,52.9,4.4"/>
	<path class="st2" d="M70.6,9c0,0,2.3-0.1,4.2,1.7c1.9,1.7,1.8,3.7,1.8,3.7c-0.7-1.7-2.4-2-2.4-2s1.7,1.7,1.5,3.9s-1.2,3.6-1.2,3.6
		c-0.2-0.9-1.1-1.1-1.1-1.1c-1.9,1.1-6.7,1.6-6.7,1.6s-3.6-0.7-5.2-3.4c-1.6-2.6-0.7-4.4-0.7-4.4L70.6,9L70.6,9z"/>
	<path class="st1" d="M69,20.4c-2.7-1.1-3.6-3.9-3.6-3.9c1.5,2.4,5.6,3.2,5.6,3.2L69,20.4L69,20.4z"/>
	<path class="st1" d="M46.4,12c0.6-0.2,1.2-0.5,1.9-0.4c0.7,0,1.4,0.3,1.9,0.6c1.2,0.6,2.4,1,3.6,1.1s2.6,0.1,3.8-0.1
		c1.2-0.2,2.6-0.5,3.6-1.1h0.1c1.6-0.5,3.2-1,4.7-1.6c0.9-0.3,1.9-0.7,2.9-1c0.6-0.2,1.2-0.3,1.9-0.4c-1.4,0.9-3.1,1.4-4.6,2.1
		c-1.6,0.6-3.1,1.2-4.7,1.7h0.1c-1.2,0.6-2.6,0.9-3.9,1.1c-1.3,0.2-2.7,0.2-4.1,0c-1.4-0.1-2.7-0.6-3.8-1.4
		c-0.6-0.4-1.1-0.7-1.7-0.7c-0.6-0.1-1.2,0-1.9,0.1"/>
	<path class="st1" d="M51.2,21.6c0-0.1,0.1-0.2,0.2-0.2s0.2,0.1,0.2,0.2c0,0.9-0.2,1.6-0.6,2.4c-0.3,0.7-0.8,1.4-1.3,2.1
		c-0.1,0.2-0.3,0.3-0.4,0.4s-0.2,0.1-0.2,0.2c-0.1,0.1-0.1,0.1-0.2,0.2s-0.1,0.2-0.1,0.2c0,0.1,0.1,0.2,0.3,0.3
		c0.3,0.2,0.7,0.3,1.1,0.4s0.7,0.1,1.2,0.1c0.1,0,0.2,0,0.2,0.1s0,0.2-0.1,0.2c-0.4,0.1-0.9,0.1-1.3,0c-0.4,0-0.9-0.2-1.3-0.4
		c-0.2-0.1-0.4-0.2-0.6-0.6c-0.1-0.1-0.1-0.3,0-0.5c0-0.2,0.1-0.2,0.2-0.4c0.1-0.1,0.2-0.2,0.2-0.2c0.1,0,0.1-0.1,0.2-0.2
		s0.2-0.2,0.4-0.4c0.5-0.6,0.9-1.2,1.3-1.9c0.4-0.7,0.6-1.4,0.7-2.2L51.2,21.6z"/>
	<path class="st1" d="M54.7,29.9c0-0.1,0.1-0.1,0.2-0.1s0.2,0.1,0.1,0.2c0,0.3-0.2,0.6-0.3,0.7c-0.1,0.2-0.4,0.4-0.6,0.6
		c-0.2,0.1-0.5,0.2-0.7,0.4c-0.1,0-0.2,0-0.4,0.1h-0.4c-0.2,0-0.3-0.1-0.3-0.3s0.1-0.3,0.3-0.3H53h0.3c0.2,0,0.4-0.1,0.6-0.2
		s0.4-0.2,0.5-0.4s0.2-0.4,0.3-0.6V29.9z"/>
	<path class="st1" d="M59.2,19.7V20c-0.1,0.1-0.2,0.1-0.2,0c-0.7-0.6-1.5-0.9-2.4-1.1c-0.8-0.2-1.7-0.1-2.6,0c-0.1,0-0.1,0-0.2,0
		c-0.5,0-0.9-0.4-0.8-0.9c0-0.4,0.5-0.8,1-0.7c1,0.1,2,0.3,2.9,0.7S58.6,19,59.2,19.7"/>
	<path class="st1" d="M47.4,21.2v0.2c0,0.1,0.1,0,0.2,0c0.4-0.6,0.8-1.1,1.2-1.4c0.5-0.3,1-0.4,1.5-0.4h0.1c0.3-0.1,0.4-0.6,0.4-1
		c-0.1-0.4-0.4-0.7-0.7-0.6c-0.6,0.2-1.1,0.6-1.6,1.1C48,19.7,47.6,20.3,47.4,21.2"/>
	<path class="st1" d="M55.1,23.1c-0.1-0.6,0.2-1.2,0.5-1.3c0.4-0.1,0.7,0.3,0.7,0.9c0.1,0.6-0.2,1.2-0.5,1.3
		C55.4,24.1,55.1,23.7,55.1,23.1"/>
	<path class="st1" d="M48.6,23.3c0-0.6,0.2-1.2,0.6-1.3c0.4-0.1,0.7,0.3,0.7,0.9s-0.2,1.2-0.6,1.3C48.9,24.3,48.6,23.9,48.6,23.3"/>
</g>
</svg>
