<?xml version="1.0" encoding="utf-8"?>
<!-- Generator: Adobe Illustrator 26.3.1, SVG Export Plug-In . SVG Version: 6.00 Build 0)  -->
<svg version="1.1" id="Layer_1" xmlns="http://www.w3.org/2000/svg" xmlns:xlink="http://www.w3.org/1999/xlink" x="0px" y="0px"
	 viewBox="0 0 1440 1000" style="enable-background:new 0 0 1440 1000;" xml:space="preserve">
<style type="text/css">
	.st0{fill:#FFFFFF;}
	.st1{fill:#F9F9F9;}
	.st2{fill:#F3F3F3;}
	.st3{fill:#EDEDED;}
	.st4{fill:#E8E8E8;}
</style>
<path class="st0" d="M0,1000l0-55.5l0-277.7l0-333.6L0,55.5L0,0l764,0l-28.8,55.5C706.3,111,648.7,222,557.5,333.2
	C466.3,444.3,341.7,555.7,349,666.8C356.3,778,495.7,889,565.3,944.5L635,1000H0z"/>
<path class="st1" d="M634,1000l-69.7-55.5C494.7,889,355.3,778,348,666.8c-7.3-111.1,117.3-222.5,208.5-333.6
	C647.7,222,705.3,111,734.2,55.5L763,0l217,0l-40.8,55.5C898.3,111,816.7,222,725.5,333.2c-91.2,111.1-191.8,222.5-165.3,333.6
	C586.7,778,740.3,889,817.2,944.5L894,1000H634z"/>
<path class="st2" d="M893,1000l-76.8-55.5C739.3,889,585.7,778,559.2,666.8c-26.5-111.1,74.1-222.5,165.3-333.6
	C815.7,222,897.3,111,938.2,55.5L979,0l246,0l9.7,55.5c9.6,55.5,29,166.5-69.4,277.7C1067,444.3,851,555.7,824.5,666.8
	C798,778,961,889,1042.5,944.5l81.5,55.5H893z"/>
<path class="st3" d="M1123,1000l-81.5-55.5C960,889,797,778,823.5,666.8C850,555.7,1066,444.3,1164.3,333.2
	c98.4-111.2,79-222.2,69.4-277.7L1224,0l59,0l14.3,55.5c14.4,55.5,43,166.5-9.8,277.7c-52.8,111.1-187.2,222.5-184.8,333.6
	C1105,778,1244,889,1313.5,944.5l69.5,55.5H1123z"/>
<path class="st4" d="M1382,1000l-69.5-55.5C1243,889,1104,778,1101.7,666.8c-2.4-111.1,132-222.5,184.8-333.6
	c52.8-111.2,24.2-222.2,9.8-277.7L1282,0l158,0v55.5c0,55.5,0,166.5,0,277.7c0,111.1,0,222.5,0,333.6c0,111.2,0,222.2,0,277.7v55.5
	H1382z"/>
</svg>
